<svg xmlns="http://www.w3.org/2000/svg" viewBox="0 0 20 20" fill="none"><g transform="translate(0, 1.67) scale(0.741) translate(0, -5.5)" fill="currentColor" stroke="currentColor" stroke-width="0.5"><path d="M21.8396 22.375H11.2613C10.0069 22.375 8.89538 21.5346 8.56013 20.332L4.98375 7.849C4.78125 7.12675 4.11637 6.625 3.36375 6.625H0.5625C0.252 6.625 0 6.373 0 6.0625C0 5.752 0.252 5.5 0.5625 5.5H3.36375C4.61812 5.5 5.72962 6.34037 6.06487 7.543L6.77025 10H25.3114C25.8503 10 26.3441 10.2475 26.6647 10.6795C26.9865 11.1115 27.0821 11.656 26.9269 12.1713L24.507 20.44C24.1178 21.6055 23.0479 22.375 21.8396 22.375ZM7.092 11.125L9.64237 20.026C9.84375 20.7483 10.5086 21.25 11.2613 21.25H21.8396C22.5529 21.25 23.2076 20.7786 23.4326 20.1048L25.8503 11.8495C25.902 11.6774 25.8694 11.4962 25.7625 11.3522C25.6556 11.2071 25.4914 11.125 25.3114 11.125H7.092Z"/><path d="M12.375 28C11.1341 28 10.125 26.9909 10.125 25.75C10.125 24.5091 11.1341 23.5 12.375 23.5C13.6159 23.5 14.625 24.5091 14.625 25.75C14.625 26.9909 13.6159 28 12.375 28ZM12.375 24.625C11.754 24.625 11.25 25.1301 11.25 25.75C11.25 26.3699 11.754 26.875 12.375 26.875C12.996 26.875 13.5 26.3699 13.5 25.75C13.5 25.1301 12.996 24.625 12.375 24.625Z"/><path d="M20.25 28C19.0091 28 18 26.9909 18 25.75C18 24.5091 19.0091 23.5 20.25 23.5C21.4909 23.5 22.5 24.5091 22.5 25.75C22.5 26.9909 21.4909 28 20.25 28ZM20.25 24.625C19.629 24.625 19.125 25.1301 19.125 25.75C19.125 26.3699 19.629 26.875 20.25 26.875C20.871 26.875 21.375 26.3699 21.375 25.75C21.375 25.1301 20.871 24.625 20.25 24.625Z"/></g></svg>
