<svg xmlns="http://www.w3.org/2000/svg" viewBox="0 0 20 20" fill="none"><g transform="translate(1.58, 0) scale(0.867) translate(-4, -4.94)" fill="currentColor"><path d="M13.5628 16.0792C15.1031 16.0792 16.4367 15.5333 17.5267 14.4562C18.6164 13.3793 19.169 12.0617 19.169 10.5394C19.169 9.01769 18.6165 7.69987 17.5265 6.62262C16.4366 5.54591 15.1029 5 13.5628 5C12.0223 5 10.6888 5.54591 9.59899 6.6228C8.50917 7.6997 7.95654 9.01752 7.95654 10.5394C7.95654 12.0617 8.50917 13.3795 9.59899 14.4564C10.6892 15.5331 12.0228 16.0792 13.5628 16.0792ZM10.5636 7.57581C11.3998 6.74949 12.3808 6.34783 13.5628 6.34783C14.7446 6.34783 15.7257 6.74949 16.5621 7.57581C17.3983 8.4023 17.805 9.3718 17.805 10.5394C17.805 11.7074 17.3983 12.6767 16.5621 13.5032C15.7257 14.3297 14.7446 14.7314 13.5628 14.7314C12.3811 14.7314 11.4002 14.3295 10.5636 13.5032C9.7272 12.6769 9.32054 11.7074 9.32054 10.5394C9.32054 9.3718 9.7272 8.4023 10.5636 7.57581Z"/><path d="M23.3721 22.6858C23.3407 22.2377 23.2771 21.7488 23.1835 21.2325C23.089 20.7124 22.9674 20.2207 22.8218 19.7713C22.6712 19.3069 22.4668 18.8482 22.2137 18.4086C21.9515 17.9524 21.6432 17.5551 21.2973 17.2282C20.9355 16.8862 20.4926 16.6112 19.9805 16.4106C19.4701 16.2111 18.9045 16.11 18.2995 16.11C18.0619 16.11 17.8321 16.2064 17.3883 16.4919C17.1152 16.6679 16.7958 16.8714 16.4392 17.0966C16.1343 17.2885 15.7212 17.4684 15.211 17.6312C14.7133 17.7904 14.2079 17.8711 13.7089 17.8711C13.2102 17.8711 12.7048 17.7904 12.2067 17.6312C11.6971 17.4686 11.2838 17.2887 10.9795 17.0967C10.6262 16.8737 10.3066 16.6702 10.0294 16.4917C9.58598 16.2062 9.35619 16.1099 9.11859 16.1099C8.51339 16.1099 7.94798 16.2111 7.43779 16.4108C6.926 16.611 6.48293 16.886 6.12085 17.2283C5.77492 17.5554 5.46664 17.9525 5.20453 18.4086C4.95183 18.8482 4.74726 19.3067 4.59667 19.7715C4.45123 20.2209 4.32959 20.7124 4.23512 21.2325C4.14135 21.7481 4.07796 22.2371 4.04653 22.6863C4.01563 23.1256 4 23.5827 4 24.0445C4 25.2451 4.38624 26.2171 5.14788 26.9339C5.90011 27.6413 6.89528 27.9999 8.10584 27.9999H19.3133C20.5235 27.9999 21.5187 27.6413 22.2711 26.9339C23.0329 26.2176 23.4192 25.2453 23.4192 24.0444C23.419 23.5809 23.4032 23.1238 23.3721 22.6858ZM21.3306 25.9574C20.8336 26.4249 20.1737 26.6521 19.3131 26.6521H8.10584C7.24511 26.6521 6.58522 26.4249 6.08835 25.9576C5.60089 25.499 5.364 24.8731 5.364 24.0445C5.364 23.6136 5.37838 23.188 5.40715 22.7795C5.43521 22.3787 5.49257 21.9385 5.57763 21.4706C5.66162 21.0086 5.76853 20.575 5.89567 20.1825C6.01767 19.8061 6.18407 19.4334 6.39041 19.0744C6.58735 18.7322 6.81395 18.4386 7.06398 18.2021C7.29785 17.9808 7.59264 17.7997 7.93998 17.6639C8.26123 17.5382 8.62225 17.4694 9.01417 17.4591C9.06194 17.4842 9.147 17.5321 9.2848 17.6209C9.5652 17.8014 9.8884 18.0075 10.2457 18.2329C10.6484 18.4867 11.1673 18.7159 11.7873 18.9136C12.4211 19.1161 13.0675 19.2189 13.7091 19.2189C14.3507 19.2189 14.9972 19.1161 15.6307 18.9138C16.2511 18.7157 16.7698 18.4867 17.1731 18.2326C17.5388 18.0017 17.8529 17.8016 18.1333 17.6209C18.2711 17.5323 18.3562 17.4842 18.4039 17.4591C18.796 17.4694 19.1571 17.5382 19.4785 17.6639C19.8256 17.7997 20.1204 17.981 20.3543 18.2021C20.6043 18.4384 20.8309 18.732 21.0279 19.0745C21.2344 19.4334 21.401 19.8063 21.5228 20.1823C21.6501 20.5754 21.7572 21.0088 21.841 21.4705C21.9259 21.9392 21.9834 22.3796 22.0115 22.7797V22.78C22.0404 23.187 22.055 23.6123 22.0552 24.0445C22.055 24.8733 21.8181 25.499 21.3306 25.9574Z"/></g></svg>
